# File created by Blade
# Date/Time:  Tue Sep 30 19:09:10 2014
#---------------------------------------------------------
:version 1.10
:name HOM
:units
  mass 1.0
  length 1.000000
  angle deg
:documentation
     Acclaim Skeleton File
:root
   axis xyz
   order TX TY TZ RX RY RZ
   position 0.000000 0.000000 0.000000
   orientation 0 0 0
:bonedata
   begin
      id 1
      name Spine_dum
      direction 0.000000 1.000000 0.000000
      length 7.508948
      axis 0.0 0.0 0.0 xyz
   end
   begin
      id 2
      name LeftUpLeg_dum
      direction 1.000000 0.000000 0.000000
      length 3.000560
      axis 0.0 0.0 0.0 xyz
   end
   begin
      id 3
      name RightUpLeg_dum
      direction -1.000000 0.000000 0.000000
      length 3.000560
      axis 0.0 0.0 0.0 xyz
   end
   begin
      id 4
      name Spine
      direction 0.000000 1.000000 0.000000
      length 0.000000
      axis 0.0 0.0 0.0 xyz
      dof rx ry rz
   end
   begin
      id 5
      name Spine_dum1
      direction 0.000000 1.000000 0.000000
      length 13.861154
      axis 0.0 0.0 0.0 xyz
   end
   begin
      id 6
      name Spine_dum2
      direction 0.000000 1.000000 0.000000
      length 8.204781
      axis 0.0 0.0 0.0 xyz
   end
   begin
      id 7
      name Spine_dum3
      direction 0.000000 1.000000 0.000000
      length 8.204781
      axis 0.0 0.0 0.0 xyz
   end
   begin
      id 8
      name Head
      direction 0.000000 1.000000 0.000000
      length 4.527550
      axis 0.0 0.0 0.0 xyz
      dof rx ry rz
   end
   begin
      id 9
      name LeftShoulder
      direction 1.000000 0.000000 0.000000
      length 6.635956
      axis 0.0 0.0 -90.0 xyz
      dof rx ry rz
   end
   begin
      id 10
      name LeftArm
      direction 1.000000 0.000000 0.000000
      length 10.274218
      axis 0.0 0.0 -90.0 xyz
      dof rx ry rz
   end
   begin
      id 11
      name LeftForeArm
      direction 1.000000 0.000000 0.000000
      length 8.522147
      axis 0.0 0.0 -90.0 xyz
      dof ry rz rx
   end
   begin
      id 12
      name LeftHand
      direction 0.000000 0.000000 0.000000
      length 0.000000
      axis 0.0 0.0 -90.0 xyz
      dof rx ry rz
   end
   begin
      id 13
      name LeftHand_dum1
      direction 0.000000 0.000000 0.000000
      length 0.000000
      axis 0.0 0.0 -90.0 xyz
   end
   begin
      id 14
      name LeftHand_dum2
      direction 1.000000 0.000000 0.000000
      length 3.937000
      axis 0.0 0.0 -90.0 xyz
   end
   begin
      id 15
      name LeftHandThumb1
      direction 0.000000 0.000000 1.000000
      length 3.937000
      axis 0.0 0.0 -90.0 xyz
      dof rx rz ry
   end
   begin
      id 16
      name RightShoulder
      direction -1.000000 0.000000 0.000000
      length 6.635956
      axis 0.0 0.0 90.0 xyz
      dof rx ry rz
   end
   begin
      id 17
      name RightArm
      direction -1.000000 0.000000 0.000000
      length 10.274218
      axis 0.0 0.0 90.0 xyz
      dof rx ry rz
   end
   begin
      id 18
      name RightForeArm
      direction -1.000000 0.000000 0.000000
      length 8.522147
      axis 0.0 0.0 90.0 xyz
      dof ry rz rx
   end
   begin
      id 19
      name RightHand
      direction 0.000000 0.000000 0.000000
      length 0.000000
      axis 0.0 0.0 90.0 xyz
      dof rx ry rz
   end
   begin
      id 20
      name RightHand_dum1
      direction 0.000000 0.000000 0.000000
      length 0.000000
      axis 0.0 0.0 90.0 xyz
   end
   begin
      id 21
      name RightHand_dum2
      direction -1.000000 0.000000 0.000000
      length 3.937000
      axis 0.0 0.0 90.0 xyz
   end
   begin
      id 22
      name RightHandThumb1
      direction 0.000000 0.000000 1.000000
      length 3.937000
      axis 0.0 0.0 90.0 xyz
      dof rx rz ry
   end
   begin
      id 23
      name LeftUpLeg
      direction 0.000000 -1.000000 0.000000
      length 16.490845
      axis 0.0 0.0 0.0 xyz
      dof rx ry rz
   end
   begin
      id 24
      name LeftLeg
      direction 0.000000 -1.000000 0.000000
      length 14.556576
      axis 0.0 0.0 0.0 xyz
      dof rx ry rz
   end
   begin
      id 25
      name LeftFoot
      direction 0.000000 -0.258819 0.965926
      length 4.831116
      axis 15.0 0.0 0.0 xyz
      dof rx ry rz
   end
   begin
      id 26
      name LeftToeBase
      direction 0.000000 0.000000 1.000000
      length 2.952750
      axis 0.0 0.0 0.0 xyz
      dof rx ry rz
   end
   begin
      id 27
      name RightUpLeg
      direction 0.000000 -1.000000 0.000000
      length 16.490845
      axis 0.0 0.0 0.0 xyz
      dof rx ry rz
   end
   begin
      id 28
      name RightLeg
      direction 0.000000 -1.000000 0.000000
      length 14.556576
      axis 0.0 0.0 0.0 xyz
      dof rx ry rz
   end
   begin
      id 29
      name RightFoot
      direction 0.000000 -0.258819 0.965926
      length 4.831116
      axis 15.0 0.0 0.0 xyz
      dof rx ry rz
   end
   begin
      id 30
      name RightToeBase
      direction 0.000000 0.000000 1.000000
      length 2.952750
      axis 0.0 0.0 0.0 xyz
      dof rx ry rz
   end
:hierarchy
   begin
      root Spine_dum LeftUpLeg_dum RightUpLeg_dum
      Spine_dum Spine
      LeftUpLeg_dum LeftUpLeg
      RightUpLeg_dum RightUpLeg
      Spine Spine_dum1 Spine_dum2 Spine_dum3
      Spine_dum1 Head
      Spine_dum2 LeftShoulder
      Spine_dum3 RightShoulder
      LeftShoulder LeftArm
      LeftArm LeftForeArm
      LeftForeArm LeftHand
      LeftHand LeftHand_dum1 LeftHand_dum2
      LeftHand_dum1 LeftHandThumb1
      RightShoulder RightArm
      RightArm RightForeArm
      RightForeArm RightHand
      RightHand RightHand_dum1 RightHand_dum2
      RightHand_dum1 RightHandThumb1
      LeftUpLeg LeftLeg
      LeftLeg LeftFoot
      LeftFoot LeftToeBase
      RightUpLeg RightLeg
      RightLeg RightFoot
      RightFoot RightToeBase
   end

# File created by Blade
# Date/Time:  Wed Sep 24 19:42:34 2014
# Frame Rate: 120.000 fps
#------------------------------------------------------
:FULLY-SPECIFIED
:DEGREES
114
root -4.680534 32.873055 -3.332874 11.955778 3.475598 -1.199821
Spine -12.208133 4.032295 -0.006311
Head -8.105110 -3.816694 12.360352
LeftShoulder -15.731905 21.346646 26.304496
LeftArm 17.400194 -27.265103 -32.140265
LeftForeArm 13.412912 -0.000000 15.562650
LeftHand -27.357305 -0.000000 -4.286106
LeftHandThumb1 -26.253704 0.000000 33.147579
RightShoulder -21.753424 12.882327 -37.746319
RightArm -8.946868 12.909243 28.366337
RightForeArm -27.845179 -0.000000 23.248896
RightHand -12.242394 0.000000 8.229740
RightHandThumb1 -24.326973 -0.000000 -32.862282
LeftUpLeg -6.896828 3.404426 4.900807
LeftLeg -0.867159 -0.000000 0.000000
LeftFoot -9.884515 5.411866 -18.368778
LeftToeBase 9.986555 -0.000000 -0.000000
RightUpLeg -8.581056 -7.901583 0.005910
RightLeg 3.033271 -0.000000 -0.000000
RightFoot -8.138712 -6.395791 -16.200232
RightToeBase 1.289384 -0.000000 -0.000000
115
root -4.681166 32.872741 -3.333279 11.952353 3.475526 -1.207265
Spine -12.210599 4.052054 -0.018281
Head -8.040314 -3.845294 12.383166
LeftShoulder -15.725800 21.366580 26.311163
LeftArm 17.430748 -27.309104 -32.215623
LeftForeArm 13.435737 -0.000000 15.591858
LeftHand -27.345929 -0.000000 -4.263575
LeftHandThumb1 -26.253704 0.000000 33.147579
RightShoulder -21.741660 12.906901 -37.748415
RightArm -8.866270 13.009335 28.336612
RightForeArm -27.576456 -0.000000 23.457839
RightHand -12.325161 -0.000000 8.127091
RightHandThumb1 -24.326973 -0.000000 -32.862282
LeftUpLeg -6.894935 3.400435 4.910785
LeftLeg -0.865434 -0.000000 0.000000
LeftFoot -9.894525 5.419038 -18.364247
LeftToeBase 9.991361 -0.000000 -0.000000
RightUpLeg -8.579584 -7.915118 0.016113
RightLeg 3.034551 -0.000000 -0.000000
RightFoot -8.140483 -6.375707 -16.207388
RightToeBase 1.291789 -0.000000 -0.000000
116
root -4.681078 32.872899 -3.333489 11.950560 3.477795 -1.210686
Spine -12.214367 4.074575 -0.031353
Head -7.987351 -3.897438 12.420784
LeftShoulder -15.717021 21.371017 26.302748
LeftArm 17.461153 -27.338688 -32.270140
LeftForeArm 13.508713 -0.000000 15.610758
LeftHand -27.408620 -0.000000 -4.187607
LeftHandThumb1 -26.253704 0.000000 33.147579
RightShoulder -21.718033 12.945328 -37.739896
RightArm -8.835332 13.178467 28.265307
RightForeArm -27.408648 -0.000000 23.718412
RightHand -12.282020 -0.000000 7.972043
RightHandThumb1 -24.326973 -0.000000 -32.862282
LeftUpLeg -6.895748 3.391434 4.915018
LeftLeg -0.860947 -0.000000 0.000000
LeftFoot -9.888134 5.419173 -18.359291
LeftToeBase 9.987314 -0.000000 -0.000000
RightUpLeg -8.576622 -7.924962 0.019028
RightLeg 3.028719 -0.000000 -0.000000
RightFoot -8.136355 -6.354305 -16.194146
RightToeBase 1.309193 -0.000000 -0.000000
117
root -4.681622 32.873175 -3.333042 11.939456 3.475016 -1.213725
Spine -12.205444 4.091035 -0.033373
Head -7.923990 -3.916792 12.402571
LeftShoulder -15.703734 21.381987 26.276685
LeftArm 17.462528 -27.424421 -32.333968
LeftForeArm 13.614389 -0.000000 15.671801
LeftHand -27.524294 -0.000000 -4.212414
LeftHandThumb1 -26.253704 0.000000 33.147579
RightShoulder -21.671758 13.004259 -37.731494
RightArm -8.835860 13.365092 28.191320
RightForeArm -27.278627 0.000000 24.059640
RightHand -12.400436 0.000000 7.800161
RightHandThumb1 -24.326973 -0.000000 -32.862282
LeftUpLeg -6.884790 3.403792 4.915691
LeftLeg -0.860218 -0.000000 0.000000
LeftFoot -9.893791 5.419624 -18.371748
LeftToeBase 10.037015 -0.000000 -0.000000
RightUpLeg -8.560815 -7.939068 0.023706
RightLeg 3.018843 -0.000000 -0.000000
RightFoot -8.129664 -6.351964 -16.213735
RightToeBase 1.271089 -0.000000 -0.000000
118
root -4.681815 32.873033 -3.333185 11.934642 3.473074 -1.216929
Spine -12.205314 4.111459 -0.049238
Head -7.859451 -3.925402 12.430113
LeftShoulder -15.696135 21.416341 26.287138
LeftArm 17.480173 -27.512837 -32.439957
LeftForeArm 13.626526 -0.000000 15.772222
LeftHand -27.606010 -0.000000 -4.188958
LeftHandThumb1 -26.253704 0.000000 33.147579
RightShoulder -21.662079 13.063848 -37.717678
RightArm -8.797291 13.556648 28.117586
RightForeArm -27.291067 -0.000000 24.383322
RightHand -12.362708 -0.000000 7.661908
RightHandThumb1 -24.326973 -0.000000 -32.862282
LeftUpLeg -6.878028 3.392597 4.922654
LeftLeg -0.864658 -0.000000 0.000000
LeftFoot -9.881129 5.426404 -18.371711
LeftToeBase 9.980981 -0.000000 -0.000000
RightUpLeg -8.555238 -7.939712 0.027013
RightLeg 3.014889 -0.000000 -0.000000
RightFoot -8.131892 -6.343790 -16.211618
RightToeBase 1.267803 -0.000000 -0.000000
119
root -4.682299 32.873223 -3.333511 11.932576 3.467800 -1.220408
Spine -12.209526 4.133060 -0.062054
Head -7.780254 -3.903462 12.410536
LeftShoulder -15.691848 21.436835 26.273933
LeftArm 17.503915 -27.545088 -32.490456
LeftForeArm 13.542257 -0.000000 15.803075
LeftHand -27.647422 -0.000000 -4.067404
LeftHandThumb1 -26.253704 0.000000 33.147579
RightShoulder -21.630031 13.128787 -37.714362
RightArm -8.808446 13.756518 28.058473
RightForeArm -27.257359 -0.000000 24.793378
RightHand -12.425688 0.000000 7.486543
RightHandThumb1 -24.326973 -0.000000 -32.862282
LeftUpLeg -6.877801 3.401244 4.924522
LeftLeg -0.859641 -0.000000 0.000000
LeftFoot -9.894140 5.420780 -18.368559
LeftToeBase 10.011161 -0.000000 -0.000000
RightUpLeg -8.555507 -7.942024 0.031505
RightLeg 3.017438 -0.000000 -0.000000
RightFoot -8.135120 -6.345448 -16.213837
RightToeBase 1.335096 -0.000000 -0.000000
